<svg xmlns="http://www.w3.org/2000/svg" width="1920" height="1080" viewBox="0 0 1920 1080">
  <title>步骤 2：核对安全等级需确认项</title>
  <defs><style>
  text { font-family: -apple-system, BlinkMacSystemFont, "PingFang SC", "Microsoft YaHei", sans-serif; fill: #39404a; font-size: 14px; }
  .title { font-size: 18px; font-weight: 600; fill: #252b34; }
  .section { font-size: 16px; font-weight: 600; fill: #252b34; }
  .label { text-anchor: end; dominant-baseline: middle; }
  .value { dominant-baseline: middle; fill: #5b6470; }
  .muted { fill: #9aa3af; }
  .head { font-weight: 600; fill: #303846; dominant-baseline: middle; }
  .cell { fill: #5b6470; dominant-baseline: middle; }
  .blue { fill: #356fca; }
  .amber { fill: #d99525; }
  .green { fill: #2f9b63; }
  .white { fill: #ffffff; }
  .small { font-size: 12px; }
  .tiny { font-size: 11px; }
</style></defs>
  <g id="step-2-security-review-pending">

    
    <rect width="1920" height="1080" fill="#f5f7fa"/>
    <rect x="220" y="35" width="1480" height="1010" fill="#ffffff" stroke="#d8dde5"/>
    <text x="255" y="76" class="title">编辑盘点任务</text>
    <text x="1660" y="76" class="title" fill="#8a929d">×</text>
    <line x1="220" y1="100" x2="1700" y2="100" stroke="#e3e7ed"/>

    <rect x="250" y="125" width="1420" height="410" fill="#ffffff" stroke="#e3e7ed"/>
    <text x="280" y="160" class="section">通用属性</text>
    <line x1="250" y1="182" x2="1670" y2="182" stroke="#e3e7ed"/>

    <text x="450" y="220" class="label">数据源 ID：</text><text x="470" y="220" class="value">RTDS_MYSQL_198_48_1</text>
    <text x="1080" y="220" class="label">数据源名称：</text><text x="1100" y="220" class="value">RTDS_MYSQL_198_48_1</text>
    <text x="450" y="264" class="label">schema：</text><text x="470" y="264" class="value">zzh_tidb</text>
    <text x="1080" y="264" class="label">表名：</text><text x="1100" y="264" class="value">tidb02_lv_minus1_xysb</text>
    <text x="450" y="308" class="label"><tspan fill="#ef4f4f">*</tspan> 表中文名：</text>
    <rect x="470" y="289" width="455" height="38" fill="#ffffff" stroke="#d8dde5"/><text x="484" y="308" class="value">省市基础信息表</text>
    <text x="1080" y="308" class="label"><tspan fill="#ef4f4f">*</tspan> 目录挂载：</text>
    <rect x="1100" y="289" width="455" height="38" fill="#ffffff" stroke="#d8dde5"/><text x="1114" y="308" class="value">请选择</text>
    <text x="450" y="352" class="label">技术 Owner：</text><text x="470" y="352" class="value">柳鑫015500</text>
    <text x="1080" y="352" class="label"><tspan fill="#ef4f4f">*</tspan> 业务 Owner：</text>
    <rect x="1100" y="333" width="455" height="38" fill="#ffffff" stroke="#d8dde5"/><text x="1114" y="352" class="value">请选择</text>
    <text x="450" y="396" class="label">分层标签：</text>
    <rect x="470" y="377" width="455" height="38" fill="#ffffff" stroke="#d8dde5"/><text x="484" y="396" class="value">请选择分层</text>
    <text x="1080" y="396" class="label"><tspan fill="#ef4f4f">*</tspan> 数据主管单位：</text>
    <rect x="1100" y="377" width="455" height="38" fill="#ffffff" stroke="#d8dde5"/><text x="1114" y="396" class="value">请选择</text>
    <text x="450" y="456" class="label">备注：</text>
    <rect x="470" y="437" width="1085" height="38" fill="#ffffff" stroke="#d8dde5"/><text x="484" y="456" class="value">包含省份与城市相关基础字段，用于维护行政区划编码与名称。</text>

    <rect x="250" y="555" width="1420" height="390" fill="#ffffff" stroke="#e3e7ed"/>
    <text x="280" y="592" class="section">字段信息</text>
    <text x="1230" y="592" class="value muted small">预填范围包含全部分页字段</text>
    <rect x="1410" y="570" width="220" height="40" rx="4" fill="#eef8f2" stroke="#8bc7a6"/>
    <text x="1520" y="591" text-anchor="middle" dominant-baseline="middle" class="green">✓ 后台智能预填已完成</text>

    <line x1="220" y1="970" x2="1700" y2="970" stroke="#e3e7ed"/>
    <rect x="1490" y="990" width="70" height="36" rx="4" fill="#fff" stroke="#d8dde5"/><text x="1525" y="1009" text-anchor="middle" dominant-baseline="middle">取消</text>
    <rect x="1570" y="990" width="75" height="36" rx="4" fill="#356fca"/><text x="1607" y="1009" text-anchor="middle" dominant-baseline="middle" class="white">确定</text>
  
    
    <rect x="270" y="612" width="1380" height="82" fill="#f2f7ff" stroke="#b9d6ff"/>
    <text x="290" y="634" class="blue"><tspan font-weight="600">后台智能预填已完成</tspan><tspan fill="#5b6470">　完成时间：2026-06-22 09:10　表信息 2 项，字段信息 11 项，安全等级 4 项</tspan></text>
    <text x="1210" y="634" class="value">安全等级需确认 2 项　低置信度 2 项　待人工补充 1 项</text>
    <text x="1625" y="634" text-anchor="end" class="blue">只看待处理项</text>
    <text x="290" y="670" class="value small">标识说明：“安全推荐”来自既有安全等级确认接口；中低置信度及 3/4 级安全等级需人工确认。</text>

    <rect x="270" y="714" width="1380" height="220" fill="#ffffff" stroke="#e3e7ed"/>
    <rect x="270" y="714" width="1380" height="44" fill="#fafbfc"/>
    <line x1="395" y1="714" x2="395" y2="934" stroke="#e3e7ed"/>
    <line x1="650" y1="714" x2="650" y2="934" stroke="#e3e7ed"/>
    <line x1="910" y1="714" x2="910" y2="934" stroke="#e3e7ed"/>
    <line x1="1290" y1="714" x2="1290" y2="934" stroke="#e3e7ed"/>
    <line x1="1500" y1="714" x2="1500" y2="934" stroke="#e3e7ed"/>
    <text x="280" y="736" class="head">字段名称</text><text x="405" y="736" class="head">字段类型</text><text x="670" y="736" class="head">字段中文名称</text><text x="930" y="736" class="head">备注</text><text x="1310" y="736" class="head"><tspan fill="#ef4f4f">*</tspan> 安全等级</text><text x="1518" y="736" class="head">状态</text>
    <line x1="270" y1="758" x2="1650" y2="758" stroke="#e3e7ed"/><line x1="270" y1="802" x2="1650" y2="802" stroke="#e3e7ed"/><line x1="270" y1="846" x2="1650" y2="846" stroke="#e3e7ed"/><line x1="270" y1="890" x2="1650" y2="890" stroke="#e3e7ed"/>
    
      <text x="280" y="760" class="cell">province</text>
      <text x="405" y="760" class="cell">varchar(100)</text>
      <text x="670" y="760" class="cell">省份</text><rect x="808" y="745" width="102" height="24" rx="3" fill="#356fca"/><text x="859" y="758" text-anchor="middle" dominant-baseline="middle" class="white tiny">AI生成｜置信度：中</text>
      <text x="930" y="760" class="cell">省级行政区名称，具体取值范围需确认。</text>
      <rect x="1310" y="743" width="64" height="32" fill="#ffffff" stroke="#d8dde5"/>
      <text x="1325" y="760" class="cell">2级</text>
      <rect x="1384" y="745" width="102" height="24" rx="3" fill="#356fca"/><text x="1435" y="758" text-anchor="middle" dominant-baseline="middle" class="white tiny">安全推荐｜中置信</text>
      <text x="1518" y="760" class="amber">需确认</text>
    

      <text x="280" y="804" class="cell">cityid</text>
      <text x="405" y="804" class="cell">int(11)</text>
      <text x="670" y="804" class="cell">城市编码</text><rect x="808" y="789" width="102" height="24" rx="3" fill="#356fca"/><text x="859" y="802" text-anchor="middle" dominant-baseline="middle" class="white tiny">AI生成｜置信度：中</text>
      <text x="930" y="804" class="cell">城市编码标识，建议结合关联表确认。</text>
      <rect x="1310" y="787" width="64" height="32" fill="#ffffff" stroke="#d8dde5"/>
      <text x="1325" y="804" class="cell">2级</text>
      <rect x="1384" y="789" width="102" height="24" rx="3" fill="#356fca"/><text x="1435" y="802" text-anchor="middle" dominant-baseline="middle" class="white tiny">安全推荐｜中置信</text>
      <text x="1518" y="804" class="amber">需确认</text>
    

      <text x="280" y="848" class="cell">cityname</text>
      <text x="405" y="848" class="cell">varchar(100)</text>
      <text x="670" y="848" class="cell">城市名称</text><rect x="808" y="833" width="102" height="24" rx="3" fill="#356fca"/><text x="859" y="846" text-anchor="middle" dominant-baseline="middle" class="white tiny">AI生成｜置信度：中</text>
      <text x="930" y="848" class="cell">城市中文名称，与 cityid 配套使用。</text>
      <rect x="1310" y="831" width="64" height="32" fill="#ffffff" stroke="#d8dde5"/>
      <text x="1325" y="848" class="cell">1级</text>
      <rect x="1384" y="833" width="102" height="24" rx="3" fill="#2f9b63"/><text x="1435" y="846" text-anchor="middle" dominant-baseline="middle" class="white tiny">安全推荐｜高置信</text>
      <text x="1518" y="848" class="green">已预填</text>
    

      <text x="280" y="892" class="cell">amt</text>
      <text x="405" y="892" class="cell">decimal(18,2)</text>
      <text x="670" y="892" class="amber">证据不足，请人工填写</text>
      <text x="930" y="892" class="cell">待人工补充</text>
      <rect x="1310" y="875" width="64" height="32" fill="#ffffff" stroke="#d8dde5"/>
      <text x="1325" y="892" class="cell">3级</text>
      <rect x="1384" y="877" width="102" height="24" rx="3" fill="#d99525"/><text x="1435" y="890" text-anchor="middle" dominant-baseline="middle" class="white tiny">安全推荐｜需确认</text>
      <text x="1518" y="892" class="amber">待补充</text>
    
  
    
    <rect x="270" y="714" width="1380" height="176" fill="#ffffff" stroke="#e3e7ed"/>
    <rect x="270" y="714" width="1380" height="44" fill="#fafbfc"/>
    <line x1="395" y1="714" x2="395" y2="890" stroke="#e3e7ed"/><line x1="650" y1="714" x2="650" y2="890" stroke="#e3e7ed"/><line x1="910" y1="714" x2="910" y2="890" stroke="#e3e7ed"/><line x1="1290" y1="714" x2="1290" y2="890" stroke="#e3e7ed"/><line x1="1500" y1="714" x2="1500" y2="890" stroke="#e3e7ed"/>
    <text x="280" y="736" class="head">字段名称</text><text x="405" y="736" class="head">字段类型</text><text x="670" y="736" class="head">字段中文名称</text><text x="930" y="736" class="head">备注</text><text x="1310" y="736" class="head"><tspan fill="#ef4f4f">*</tspan> 安全等级</text><text x="1518" y="736" class="head">状态</text>
    <line x1="270" y1="758" x2="1650" y2="758" stroke="#e3e7ed"/><line x1="270" y1="802" x2="1650" y2="802" stroke="#e3e7ed"/><line x1="270" y1="846" x2="1650" y2="846" stroke="#e3e7ed"/>
    <text x="280" y="780" class="cell">province</text><text x="405" y="780" class="cell">varchar(100)</text><text x="670" y="780" class="cell">省份</text><rect x="808" y="765" width="102" height="24" rx="3" fill="#356fca"/><text x="859" y="778" text-anchor="middle" dominant-baseline="middle" class="white tiny">AI生成｜置信度：中</text><text x="930" y="780" class="cell">结合样例确认具体范围。</text><rect x="1310" y="763" width="64" height="32" fill="#ffffff" stroke="#d8dde5"/><text x="1325" y="780" class="cell">2级</text><rect x="1384" y="765" width="102" height="24" rx="3" fill="#356fca"/><text x="1435" y="778" text-anchor="middle" dominant-baseline="middle" class="white tiny">安全推荐｜中置信</text><text x="1518" y="780" class="amber">需确认</text>
    <text x="280" y="824" class="cell">cityid</text><text x="405" y="824" class="cell">int(11)</text><text x="670" y="824" class="cell">城市编码</text><rect x="808" y="809" width="102" height="24" rx="3" fill="#356fca"/><text x="859" y="822" text-anchor="middle" dominant-baseline="middle" class="white tiny">AI生成｜置信度：中</text><text x="930" y="824" class="cell">确认编码体系及关联表。</text><rect x="1310" y="807" width="64" height="32" fill="#ffffff" stroke="#d8dde5"/><text x="1325" y="824" class="cell">2级</text><rect x="1384" y="809" width="102" height="24" rx="3" fill="#356fca"/><text x="1435" y="822" text-anchor="middle" dominant-baseline="middle" class="white tiny">安全推荐｜中置信</text><text x="1518" y="824" class="amber">需确认</text>
    <text x="280" y="868" class="cell">amt</text><text x="405" y="868" class="cell">decimal(18,2)</text><rect x="670" y="852" width="210" height="32" fill="#fff" stroke="#d99525"/><text x="684" y="868" class="muted small">请输入字段中文名称</text><text x="930" y="868" class="muted">待人工补充</text><rect x="1310" y="851" width="64" height="32" fill="#ffffff" stroke="#d99525"/><text x="1325" y="868" class="cell">3级</text><rect x="1384" y="853" width="102" height="24" rx="3" fill="#d99525"/><text x="1435" y="866" text-anchor="middle" dominant-baseline="middle" class="white tiny">安全推荐｜需确认</text><text x="1518" y="868" class="amber">待补充</text>
    <text x="1625" y="634" text-anchor="end" class="blue">查看全部字段</text>
  <rect x="1660" y="718" width="230" height="88" fill="#fff2d9" stroke="#d99525"/><text x="1775" y="746" text-anchor="middle" class="amber">步骤 2：核对待处理项</text><text x="1775" y="772" text-anchor="middle" class="amber small">聚焦安全等级需确认字段</text>
  
  </g>
</svg>
